<?xml version="1.0" encoding="iso-8859-1"?>
<!-- Generator: Adobe Illustrator 15.0.0, SVG Export Plug-In . SVG Version: 6.00 Build 0)  -->
<!DOCTYPE svg PUBLIC "-//W3C//DTD SVG 1.1//EN" "http://www.w3.org/Graphics/SVG/1.1/DTD/svg11.dtd">
<svg xmlns="http://www.w3.org/2000/svg" xmlns:xlink="http://www.w3.org/1999/xlink" version="1.1" id="Layer_1" x="0px" y="0px" width="512" height="512" viewBox="0 0 128 128" style="enable-background:new 0 0 128 128;" xml:space="preserve">
<g>
	<circle style="fill:#4AB8A1;" cx="64" cy="64" r="64"/>
	<path style="fill:#242424;" d="M14.866,105c11.74,14.055,29.39,23,49.134,23s37.395-8.945,49.134-23H14.866z"/>
	<path style="fill:#242424;" d="M91.441,47.92c-0.642-1.402-1.709-2.548-3.032-3.317c0.036-0.292,0.085-0.577,0.085-0.876   c0-4.107-3.332-7.438-7.438-7.438c-1.304,0-2.514,0.363-3.574,0.95c0.029-0.267,0.078-0.526,0.078-0.801   c0-4.107-3.332-7.438-7.438-7.438c-3.183,0-6.061,2.185-7.122,5c-1.161-0.74-2.338-1.355-3.812-1.355   c-0.299,0-0.583,0.053-0.875,0.085C57.024,30.509,54.647,29,51.899,29c-4.107,0-7.438,3.332-7.438,7.438   c0,1.306,0.363,2.509,0.954,3.574c-0.271-0.025-0.534-0.079-0.804-0.079c-4.065,0-7.354,3.257-7.424,7.304   c-4.051,0.075-7.304,3.289-7.304,7.35c0,4.107,3.332,7.364,7.439,7.364h51.024c4.107,0,7.438-3.257,7.438-7.364   C95.783,51.586,93.997,49.099,91.441,47.92z"/>
	<g>
		<path style="fill:#1A1A1A;" d="M74.68,37.438c0,0.274-0.051,0.534-0.08,0.801c0.891-0.492,1.89-0.813,2.955-0.908    c-0.058-4.057-1.555-8.332-7.434-8.332c-0.482,0-0.947,0.06-1.403,0.148C72.118,29.834,74.68,33.838,74.68,37.438z"/>
		<path style="fill:#1A1A1A;" d="M91.441,47.92c-0.642-1.402-1.709-2.548-3.032-3.317c0.036-0.292,0.085-0.577,0.085-0.876    c0-4.107-3.332-7.438-7.438-7.438c-0.476,0-0.933,0.063-1.379,0.152c3.387,0.695,5.936,3.694,5.936,7.286    c0,0.299-0.051,0.584-0.086,0.876c1.324,0.769,2.393,1.915,3.033,3.317c2.556,1.178,4.342,3.691,4.342,6.691    c0,4.107-3.332,7.389-7.438,7.389h2.882c4.107,0,7.438-3.281,7.438-7.389C95.783,51.611,93.997,49.099,91.441,47.92z"/>
		<path style="fill:#1A1A1A;" d="M55.431,32.73c0.292-0.032,0.577-0.085,0.875-0.085c1.474,0,4.533,1.615,5.694,2.355    c0.129-0.343,0.824-0.683,1-1c0-1-2-1.355-3.812-1.355c-0.299,0-0.583,0.053-0.875,0.085C57.024,30.509,54.647,29,51.899,29    c-0.509,0-1.005,0.052-1.486,0.149C52.556,29.564,54.367,30.897,55.431,32.73z"/>
	</g>
	<polygon style="fill:#263740;" points="25,61 32.003,94 38.488,94 89.512,94 93.961,94 101,61  "/>
	<polygon style="fill:#1E2C33;" points="97,61 89.961,94 93.961,94 101,61  "/>
	
		<circle style="fill:none;stroke:#000000;stroke-linecap:round;stroke-linejoin:round;stroke-miterlimit:10;" cx="44.759" cy="93.231" r="5.467"/>
	<g>
		<path style="fill:#CCCCCC;" d="M82,99c-4.411,0-8-3.589-8-8s3.589-8,8-8s8,3.589,8,8S86.411,99,82,99z"/>
		<circle style="fill:#B3B3B3;" cx="82" cy="91" r="6"/>
		<circle style="fill:#263740;" cx="82" cy="91" r="1"/>
	</g>
	<g>
		<path style="fill:#CCCCCC;" d="M45,99c-4.411,0-8-3.589-8-8s3.589-8,8-8s8,3.589,8,8S49.411,99,45,99z"/>
		<circle style="fill:#B3B3B3;" cx="45" cy="91" r="6"/>
		<circle style="fill:#263740;" cx="45" cy="91" r="1"/>
	</g>
	<path style="fill:#E6E6E6;" d="M117.572,99H10.428c1.366,2.086,2.844,4.092,4.438,6h98.269   C114.729,103.092,116.206,101.086,117.572,99z"/>
	<g>
		<rect x="21" y="105" style="fill:#99602E;" width="14" height="4"/>
		<rect x="44" y="105" style="fill:#99602E;" width="14" height="4"/>
		<rect x="69" y="105" style="fill:#99602E;" width="14" height="4"/>
		<rect x="92" y="105" style="fill:#99602E;" width="14" height="4"/>
	</g>
	<path style="fill:#E6E6E6;" d="M103,59c0-0.55-0.45-1-1-1H24c-0.55,0-1,0.45-1,1v1c0,0.55,0.45,1,1,1h78c0.55,0,1-0.45,1-1V59z"/>
</g>
</svg>
